<svg xmlns="http://www.w3.org/2000/svg" width="512" height="512" viewBox="0 0 512 512"><defs><linearGradient id="bg" x1="0" y1="0" x2="0.4" y2="1"><stop offset="0" stop-color="#F0A93B"></stop><stop offset="1" stop-color="#C9741A"></stop></linearGradient><linearGradient id="gl" x1="0" y1="0" x2="0" y2="1"><stop offset="0" stop-color="#ffffff" stop-opacity=".34"></stop><stop offset="1" stop-color="#ffffff" stop-opacity="0"></stop></linearGradient></defs><rect x="40" y="40" width="432" height="432" rx="108" fill="url(#bg)"></rect><rect x="40" y="40" width="432" height="432" rx="108" fill="url(#gl)"></rect><rect x="41.5" y="41.5" width="429" height="429" rx="106.5" fill="none" stroke="#ffffff" stroke-opacity=".28" stroke-width="3"></rect><rect x="128" y="316" width="256" height="16" rx="8" fill="#ffffff" fill-opacity=".55"></rect><rect x="128" y="216" width="256" height="16" rx="8" fill="#ffffff" fill-opacity=".55"></rect><rect x="148" y="246" width="92" height="70" rx="12" fill="#ffffff"></rect><rect x="254" y="258" width="118" height="58" rx="12" fill="#ffffff" fill-opacity=".8"></rect><rect x="176" y="150" width="88" height="66" rx="12" fill="#ffffff" fill-opacity=".9"></rect><rect x="278" y="166" width="74" height="50" rx="12" fill="#ffffff" fill-opacity=".65"></rect><rect x="208" y="150" width="14" height="66" fill="#C9741A" fill-opacity=".35"></rect><text x="256" y="432" text-anchor="middle" fill="#ffffff" fill-opacity=".9" font-family="Segoe UI, Arial, sans-serif" font-weight="800" font-size="62" letter-spacing="6">CPB</text></svg>